#N canvas 0 0 501 462 12;
#X msg 33 15 listen 3000;
#X obj 33 150 print;
#X obj 33 42 netreceive -u -b;
#X obj 33 69 oscparse;
#X obj 33 96 list trim;
#X obj 229 221 osc~;
#X obj 229 251 *~;
#X obj 229 281 dac~;
#X obj 303 43 vsl 15 128 0 1 0 0 empty empty empty 0 -9 0 10 #dfdfdf
#000000 #000000 0 1;
#X obj 301 206 line~;
#X msg 303 182 \$1 20;
#X obj 33 123 route num;
#X connect 0 0 2 0;
#X connect 2 0 3 0;
#X connect 3 0 4 0;
#X connect 4 0 11 0;
#X connect 5 0 6 0;
#X connect 6 0 7 0;
#X connect 6 0 7 1;
#X connect 8 0 10 0;
#X connect 9 0 6 1;
#X connect 10 0 9 0;
#X connect 11 0 1 0;
