#N canvas 0 0 633 462 12;
#X msg 33 15 listen 3000;
#X obj 33 256 print;
#X obj 33 42 netreceive -u -b;
#X obj 33 69 oscparse;
#X obj 33 96 list trim;
#X obj 392 122 osc~;
#X obj 393 152 *~;
#X obj 386 195 dac~;
#X obj 450 71 vsl 15 128 0 1 0 0 empty empty empty 0 -9 0 10 #dfdfdf
#000000 #000000 0 1;
#X obj 448 234 line~;
#X msg 450 210 \$1 20;
#X obj 111 162 route vol;
#X obj 33 162 route num;
#X floatatom 392 91 5 0 0 0 - - - 0;
#X floatatom 450 43 5 0 0 0 - - - 0;
#X obj 45 204 s num;
#X obj 190 162 route am;
#X obj 190 204 s am;
#X obj 255 162 route index;
#X obj 255 204 s index;
#X obj 111 202 s vol;
#X connect 0 0 2 0;
#X connect 2 0 3 0;
#X connect 3 0 4 0;
#X connect 4 0 11 0;
#X connect 4 0 12 0;
#X connect 4 0 16 0;
#X connect 4 0 18 0;
#X connect 5 0 6 0;
#X connect 6 0 7 0;
#X connect 6 0 7 1;
#X connect 8 0 10 0;
#X connect 9 0 6 1;
#X connect 10 0 9 0;
#X connect 11 0 20 0;
#X connect 11 0 1 0;
#X connect 12 0 1 0;
#X connect 12 0 15 0;
#X connect 13 0 5 0;
#X connect 14 0 8 0;
#X connect 16 0 17 0;
#X connect 16 0 1 0;
#X connect 18 0 19 0;
#X connect 18 0 1 0;
