#N canvas 0 27 1368 681 12;
#X obj 214 252 osc~;
#X obj 214 370 *~;
#X obj 214 411 dac~;
#X text 251 248 Carrier;
#X obj 215 219 +~;
#X floatatom 255 174 5 0 110000 1 Frecuencia\ Carrier - - 0;
#X obj 214 129 osc~;
#X obj 214 158 *~;
#X floatatom 214 101 5 0 0 0 - - - 0;
#X floatatom 364 102 5 0 0 1 amplitud\ moduladora - - 0;
#X obj 369 18 hsl 128 15 0 1000 0 0 empty empty empty -2 -8 0 10 #00faff
#000000 #000000 0 1;
#X obj 366 68 *;
#X floatatom 384 43 5 0 1000 0 - - - 0;
#X floatatom 233 304 5 0 1 0 - - - 0;
#X obj 445 230 bng 15 250 50 0 empty empty empty 17 7 0 10 #fcfcfc
#000000 #000000;
#X obj 445 202 metro 500;
#X floatatom 51 40 5 0 600 0 - - - 0;
#X msg 445 149 1;
#X obj 233 346 vline~;
#X obj 445 177 tgl 15 0 empty empty empty 17 7 0 10 #fcfcfc #000000
#000000 0 1;
#X obj 51 8 r num;
#X obj 110 8 r am;
#X obj 162 8 r index;
#X msg 445 257 1 10 \, 0 200 50;
#X connect 0 0 1 0;
#X connect 1 0 2 0;
#X connect 1 0 2 1;
#X connect 4 0 0 0;
#X connect 5 0 4 1;
#X connect 6 0 7 0;
#X connect 7 0 4 0;
#X connect 8 0 6 0;
#X connect 9 0 7 1;
#X connect 10 0 11 0;
#X connect 10 0 5 0;
#X connect 11 0 8 0;
#X connect 12 0 11 1;
#X connect 13 0 18 0;
#X connect 14 0 23 0;
#X connect 15 0 14 0;
#X connect 16 0 10 0;
#X connect 17 0 19 0;
#X connect 18 0 1 1;
#X connect 19 0 15 0;
#X connect 20 0 16 0;
#X connect 20 0 14 0;
#X connect 21 0 9 0;
#X connect 22 0 12 0;
#X connect 23 0 18 0;
